<?xml version="1.0" encoding="UTF-8" standalone="no"?>
<!-- Created with Inkscape (http://www.inkscape.org/) -->

<svg
   xmlns:dc="http://purl.org/dc/elements/1.1/"
   xmlns:cc="http://creativecommons.org/ns#"
   xmlns:rdf="http://www.w3.org/1999/02/22-rdf-syntax-ns#"
   xmlns:svg="http://www.w3.org/2000/svg"
   xmlns="http://www.w3.org/2000/svg"
   xmlns:sodipodi="http://sodipodi.sourceforge.net/DTD/sodipodi-0.dtd"
   xmlns:inkscape="http://www.inkscape.org/namespaces/inkscape"
   width="194.96349mm"
   height="53.564861mm"
   viewBox="0 0 690.8155 189.79675"
   id="svg4304"
   version="1.1"
   inkscape:version="0.91 r13725"
   sodipodi:docname="kimjongil.svg">
  <defs
     id="defs4306" />
  <sodipodi:namedview
     id="base"
     pagecolor="#ffffff"
     bordercolor="#666666"
     borderopacity="1.0"
     inkscape:pageopacity="0.0"
     inkscape:pageshadow="2"
     inkscape:zoom="0.98994949"
     inkscape:cx="370.63688"
     inkscape:cy="81.003562"
     inkscape:document-units="px"
     inkscape:current-layer="layer1"
     showgrid="false"
     fit-margin-top="0"
     fit-margin-left="0"
     fit-margin-right="0"
     fit-margin-bottom="0"
     inkscape:window-width="1366"
     inkscape:window-height="715"
     inkscape:window-x="-8"
     inkscape:window-y="-8"
     inkscape:window-maximized="1" />
  <metadata
     id="metadata4309">
    <rdf:RDF>
      <cc:Work
         rdf:about="">
        <dc:format>image/svg+xml</dc:format>
        <dc:type
           rdf:resource="http://purl.org/dc/dcmitype/StillImage" />
        <dc:title></dc:title>
      </cc:Work>
    </rdf:RDF>
  </metadata>
  <g
     inkscape:label="1. réteg"
     inkscape:groupmode="layer"
     id="layer1"
     transform="translate(-38.28457,-208.37299)">
    <path
       style="fill:#000000"
       d="M 686.23828,0.01171875 C 680.06229,0.27622911 667.41302,4.8964256 652.7793,12.416016 c -7.90161,4.06028 -23.18211,11.192319 -33.95703,15.849609 -10.77493,4.65729 -21.50931,10.067467 -23.85352,12.023437 -2.34423,1.955971 -8.38326,4.695258 -13.41992,6.085938 -5.59925,1.54603 -9.68126,4.536536 -10.50781,7.697266 -0.74351,2.84315 -3.52133,5.90853 -6.17188,6.8125 -2.65055,0.90398 -10.99075,4.371308 -18.5332,7.705078 -11.26221,4.9779 -13.71289,7.227001 -13.71289,12.582031 0,3.58633 1.17467,7.246856 2.61133,8.134766 4.8924,3.02367 2.62631,5.958361 -7.83594,10.144531 -8.16771,3.268058 -10.44727,5.562478 -10.44727,10.513668 0,3.48355 1.46785,7.00817 3.26367,7.83204 6.82086,3.12917 91.20055,-3.47848 89.04102,-6.97266 -1.00451,-1.62533 -15.77448,-1.87762 -40.41406,-0.68945 -42.08414,2.02939 -47.01094,0.42984 -28.2168,-9.15821 11.73027,-5.984338 13.21366,-13.671386 2.92188,-15.136716 -10.72326,-1.52677 -4.6029,-6.298447 20.55664,-16.029297 19.87934,-7.68864 24.84431,-10.670491 25.52343,-15.332031 0.46373,-3.18302 3.44939,-7.494882 6.63477,-9.582032 7.49757,-4.9126 73.14449,-31.866832 82.75,-33.976562 8.74282,-1.9202401 14.62088,-7.7770032 10.41406,-10.37695325 -0.68062,-0.42064313 -1.76227,-0.59229085 -3.1875,-0.53125 z M 405.99219,45.111328 c -2.37099,0.02732 -6.33841,2.057052 -11.90821,6.091797 -6.12357,4.4359 -12.09744,8.064453 -13.27343,8.064453 -2.18787,0 -33.64649,20.971258 -33.64649,22.429688 0,3.33011 58.51758,-25.626609 61.48242,-30.423828 0.98913,-1.600421 0.62102,-4.086028 -0.8164,-5.523438 -0.4358,-0.435805 -1.04756,-0.64778 -1.83789,-0.638672 z m 80.49219,14.84961 c -2.77794,-0.06926 -6.38467,0.820471 -10.81446,2.667968 -5.3102,2.21469 -14.35688,5.939314 -20.10351,8.277344 -2.8335,1.15282 -8.38302,2.932301 -13.27261,3.863281 -5.20971,0.991933 -13.91071,2.178766 -21.17271,3.585938 -11.22502,2.17508 -24.81761,4.699468 -30.20507,5.611328 -7.04874,1.19304 -9.79493,2.969208 -9.79493,6.330078 0,7.26977 2.64866,8.26703 10.7793,4.0625 6.64449,-3.43596 7.50586,-3.433188 7.50586,0.01367 0,2.14133 -2.35129,5.151703 -5.22461,6.689453 -2.87331,1.53775 -5.22461,3.92834 -5.22461,5.31445 0,6.94852 17.25502,-3.82823 20.35156,-12.710934 2.19607,-6.29972 5.27488,-8.345884 18.52344,-12.314454 6.0652,-1.816817 11.98022,-4.431872 15.82896,-5.083147 6.42942,-1.08797 14.91105,-0.420832 16.05776,1.721819 1.86454,3.4839 4.21505,4.598099 7.14844,3.386719 4.3404,-1.79242 5.58453,-2.115197 19.39062,-5.023437 5.52865,-1.1646 7.1836,-3.023379 7.1836,-8.074219 0,-5.426575 -2.32714,-8.202934 -6.95703,-8.318359 z M 302.96875,94.771484 c -1.98639,-0.145084 -10.5771,3.544297 -19.93555,8.609376 -17.43396,9.43583 -21.5738,14.5161 -18.45312,22.64844 2.09577,5.46146 4.01351,4.65278 6.88672,-2.9043 1.74911,-4.60052 7.37411,-8.85443 18.13281,-13.71289 14.38467,-6.49588 18.91639,-11.321677 13.67578,-14.560548 -0.072,-0.04449 -0.17421,-0.07041 -0.30664,-0.08008 z m -18.33594,22.849606 c -1.37215,0.0747 -2.88556,0.71955 -4.25,2.08399 -2.15323,2.1533 -2.94787,6.04798 -1.98437,9.73242 1.36832,5.23254 2.83679,5.94177 9.91601,4.79297 4.57045,-0.74168 12.33485,-3.90303 17.25391,-7.02539 l 8.94336,-5.67578 -7.83594,1.27539 c -4.30997,0.70218 -10.49813,2.1168 -13.75195,3.14258 -4.64518,1.46439 -5.58835,1.01261 -4.39258,-2.10352 1.45357,-3.78794 -0.8797,-6.38702 -3.89844,-6.22266 z M 108.3457,137.83203 c -9.596162,0.0767 -23.240952,2.18677 -41.982419,6.21485 -30.549749,6.56602 -63.2997218,15.52432 -65.76562475,17.99023 -0.818804,0.8188 -0.79212925,3.30259 0.0585938,5.51953 2.297689,5.98769 19.099562,5.36287 22.416016,-0.83398 1.4323,-2.67628 5.881009,-6.12789 9.886718,-7.66993 12.730508,-4.90075 45.129025,-11.13386 66.390625,-12.77343 18.675461,-1.44015 20.560551,-1.15245 20.560551,3.13672 0,2.59719 -6.46363,11.49919 -14.36524,19.7832 -7.901618,8.28402 -14.367186,16.32388 -14.367186,17.86719 0,6.04891 6.480452,2.15071 21.201176,-12.75391 11.8945,-12.0431 15.36914,-17.33515 15.36914,-23.41602 0,-8.94333 -5.37718,-13.17649 -19.40235,-13.06445 z"
       id="path4875"
       inkscape:connector-curvature="0"
       sodipodi:nodetypes="sssssssssssssssssssssssssssssssssssssssssssssssssssssscsscsscccssssssssssssssss"
       transform="translate(38.28457,208.37299)" />
  </g>
</svg>
