<?xml version="1.0" encoding="UTF-8" standalone="no"?>
<!-- Created with Inkscape (http://www.inkscape.org/) -->

<svg
   xmlns:dc="http://purl.org/dc/elements/1.1/"
   xmlns:cc="http://creativecommons.org/ns#"
   xmlns:rdf="http://www.w3.org/1999/02/22-rdf-syntax-ns#"
   xmlns:svg="http://www.w3.org/2000/svg"
   xmlns="http://www.w3.org/2000/svg"
   xmlns:sodipodi="http://sodipodi.sourceforge.net/DTD/sodipodi-0.dtd"
   xmlns:inkscape="http://www.inkscape.org/namespaces/inkscape"
   width="67.84375"
   height="47.0625"
   id="svg3854"
   version="1.1"
   inkscape:version="0.48.0 r9654"
   sodipodi:docname="New document 3">
  <defs
     id="defs3856" />
  <sodipodi:namedview
     id="base"
     pagecolor="#ffffff"
     bordercolor="#666666"
     borderopacity="1.0"
     inkscape:pageopacity="0.0"
     inkscape:pageshadow="2"
     inkscape:zoom="1"
     inkscape:cx="-7.6444"
     inkscape:cy="-64.993185"
     inkscape:document-units="px"
     inkscape:current-layer="layer1"
     showgrid="false"
     width="1052.36px"
     fit-margin-top="0"
     fit-margin-left="0"
     fit-margin-right="0"
     fit-margin-bottom="0"
     inkscape:window-width="1225"
     inkscape:window-height="756"
     inkscape:window-x="55"
     inkscape:window-y="0"
     inkscape:window-maximized="0" />
  <metadata
     id="metadata3859">
    <rdf:RDF>
      <cc:Work
         rdf:about="">
        <dc:format>image/svg+xml</dc:format>
        <dc:type
           rdf:resource="http://purl.org/dc/dcmitype/StillImage" />
        <dc:title></dc:title>
      </cc:Work>
    </rdf:RDF>
  </metadata>
  <g
     inkscape:label="Layer 1"
     inkscape:groupmode="layer"
     id="layer1"
     transform="translate(-2.6444,-3.16354)">
    <g
       style="display:inline"
       id="g10142"
       transform="translate(-1122.3556,-654.89896)">
      <path
         id="rect10118"
         d="m 1126.0008,659.11828 0,19.7561 19.859,0 c 0.025,-0.21366 0.051,-0.424 0.086,-0.63453 0.027,-0.16242 0.053,-0.31975 0.086,-0.48018 0.01,-0.046 0.024,-0.0914 0.034,-0.1372 0.044,-0.20677 0.1006,-0.41419 0.1544,-0.61738 0.05,-0.19032 0.096,-0.37893 0.1543,-0.56593 0.01,-0.0121 0.013,-0.0222 0.017,-0.0343 0.062,-0.19877 0.1348,-0.40548 0.2058,-0.60023 0.071,-0.19295 0.144,-0.37716 0.223,-0.56593 0.01,-0.0167 0.01,-0.0347 0.017,-0.0514 0.031,-0.0746 0.07,-0.14906 0.1029,-0.22295 0.059,-0.13191 0.1089,-0.26475 0.1715,-0.39443 0.073,-0.15103 0.1448,-0.298 0.2229,-0.44589 0.025,-0.0465 0.061,-0.091 0.086,-0.13719 0.074,-0.13622 0.1446,-0.27821 0.223,-0.41159 0.021,-0.0358 0.047,-0.0673 0.069,-0.10289 0.067,-0.11085 0.1363,-0.21706 0.2058,-0.32584 0.027,-0.0418 0.059,-0.0786 0.086,-0.12005 0.037,-0.0561 0.065,-0.11594 0.1028,-0.17149 0.1714,-0.25368 0.3442,-0.51336 0.5317,-0.75457 0.027,-0.0352 0.058,-0.0679 0.086,-0.1029 0.2123,-0.26759 0.4376,-0.52088 0.6688,-0.77172 0.047,-0.0507 0.09,-0.10442 0.1372,-0.15435 0.2212,-0.23277 0.4492,-0.45201 0.686,-0.66882 0.012,-0.0109 0.022,-0.0234 0.034,-0.0343 0.03,-0.0272 0.056,-0.0588 0.086,-0.0857 0.088,-0.0786 0.1844,-0.14658 0.2744,-0.22294 0.1582,-0.13409 0.3159,-0.26751 0.4802,-0.39444 0.058,-0.0449 0.1127,-0.0932 0.1714,-0.13719 0.01,-0.005 0.011,-0.0125 0.017,-0.0171 0.1715,-0.12793 0.3541,-0.24018 0.5316,-0.36014 0.1614,-0.10897 0.3142,-0.22365 0.4802,-0.32584 0.022,-0.0133 0.047,-0.0211 0.069,-0.0343 0.1895,-0.11518 0.3878,-0.21973 0.5832,-0.32584 0.1447,-0.0786 0.2808,-0.16657 0.4287,-0.24009 0.05,-0.0249 0.104,-0.0443 0.1543,-0.0686 0.134,-0.0646 0.2752,-0.12836 0.4116,-0.18864 0.068,-0.0302 0.1369,-0.0566 0.2058,-0.0857 0.2044,-0.0865 0.408,-0.16336 0.6173,-0.24009 0.1085,-0.0397 0.2161,-0.083 0.3259,-0.12004 0.051,-0.0172 0.1032,-0.0349 0.1543,-0.0514 0.1304,-0.0423 0.2624,-0.0816 0.3945,-0.12005 0.03,-0.009 0.056,-0.0259 0.086,-0.0343 0.1854,-0.0526 0.3775,-0.0923 0.566,-0.13719 0.1425,-0.0339 0.2845,-0.0735 0.4287,-0.1029 0.2734,-0.056 0.5441,-0.0978 0.8232,-0.1372 0.2098,-0.0296 0.4217,-0.0486 0.6345,-0.0686 0.4285,-0.0403 0.8643,-0.0686 1.3033,-0.0686 0.2194,0 0.4348,0.007 0.6517,0.0171 0.017,5.5e-4 0.035,-10e-4 0.052,0 0.1997,0.0101 0.403,0.0329 0.6003,0.0514 0.2128,0.02 0.4246,0.039 0.6345,0.0686 0.2111,0.0299 0.4266,0.0635 0.6345,0.1029 0.01,10e-4 0.012,-10e-4 0.017,0 0.3976,0.0758 0.7816,0.1651 1.1662,0.27439 0.029,0.008 0.056,0.0257 0.086,0.0343 0.1314,0.0383 0.2647,0.078 0.3945,0.12005 0.162,0.0525 0.3208,0.11316 0.4802,0.17149 0.2093,0.0767 0.4129,0.15359 0.6173,0.2401 0.4104,0.17356 0.8117,0.37187 1.2004,0.58308 0.1954,0.10611 0.3937,0.21065 0.5832,0.32583 0.44,0.26736 0.8633,0.56098 1.269,0.87462 0.1642,0.12706 0.322,0.26022 0.4802,0.39444 0.1334,0.11308 0.2655,0.22497 0.3944,0.34299 0.2369,0.21681 0.4648,0.43605 0.686,0.66882 0.048,0.0502 0.09,0.1035 0.1372,0.15435 0.2314,0.25089 0.4565,0.50405 0.6688,0.77172 0.027,0.035 0.058,0.0676 0.086,0.1029 0.1875,0.24121 0.3602,0.50089 0.5316,0.75457 0.037,0.0554 0.066,0.11555 0.1029,0.17149 0.027,0.0414 0.059,0.0783 0.086,0.12005 0.07,0.10892 0.1393,0.21485 0.2058,0.32584 0.2864,0.47729 0.544,0.97929 0.7718,1.49199 0.2914,0.65684 0.5337,1.33443 0.7202,2.04078 0.054,0.20319 0.1098,0.41061 0.1544,0.61738 0.058,0.26778 0.1126,0.53268 0.1543,0.80602 0.023,0.14743 0.034,0.29695 0.052,0.44589 l 18.7615,0 0,-19.7561 -65.8537,0 z m 0,25.2439 0,19.7561 65.8537,0 0,-19.7561 -19.2073,0 c -0.086,0.29611 -0.1863,0.58715 -0.2915,0.87462 -0.021,0.0577 -0.047,0.11413 -0.069,0.1715 -0.1309,0.34265 -0.2719,0.68296 -0.4288,1.01181 -0.1433,0.30029 -0.299,0.60403 -0.463,0.89177 -0.022,0.0397 -0.046,0.0806 -0.069,0.12004 -0.1512,0.25869 -0.313,0.50703 -0.4802,0.75458 -0.028,0.041 -0.058,0.0793 -0.086,0.12004 -0.2063,0.2985 -0.4229,0.59393 -0.6516,0.87462 -0.018,0.0222 -0.034,0.0465 -0.052,0.0686 -0.4194,0.50819 -0.8675,0.98052 -1.3548,1.4234 -0.5411,0.49197 -1.1344,0.93637 -1.7492,1.33765 -0.035,0.0227 -0.068,0.0462 -0.1029,0.0686 -0.2733,0.17462 -0.5544,0.34199 -0.8404,0.49733 -0.023,0.0122 -0.046,0.0222 -0.069,0.0343 -0.3186,0.1708 -0.6444,0.33445 -0.9775,0.48018 -0.252,0.11014 -0.512,0.21354 -0.7717,0.30869 -0.1528,0.056 -0.3077,0.10368 -0.463,0.15435 -0.2845,0.0928 -0.5652,0.18288 -0.8575,0.25724 -0.3379,0.0861 -0.6815,0.16248 -1.029,0.22294 -0.024,0.004 -0.045,0.0132 -0.069,0.0171 -0.068,0.0114 -0.1373,0.0239 -0.2058,0.0343 -0.3046,0.0465 -0.6151,0.0767 -0.926,0.1029 -0.3844,0.0323 -0.7735,0.0514 -1.1662,0.0514 -0.3927,0 -0.7818,-0.0191 -1.1661,-0.0514 -0.3109,-0.0262 -0.6215,-0.0564 -0.9261,-0.1029 -0.07,-0.0107 -0.1364,-0.0226 -0.2058,-0.0343 -0.024,-0.004 -0.045,-0.0131 -0.069,-0.0171 -0.3475,-0.0605 -0.691,-0.13686 -1.029,-0.22294 -0.011,-0.003 -0.024,0.003 -0.034,0 -0.2793,-0.0719 -0.551,-0.16852 -0.8232,-0.25724 -0.1553,-0.0507 -0.3102,-0.0983 -0.463,-0.15435 -0.2627,-0.0962 -0.5169,-0.19719 -0.7717,-0.30869 -0.3331,-0.14573 -0.6589,-0.30938 -0.9775,-0.48018 -0.022,-0.0121 -0.046,-0.0221 -0.069,-0.0343 -0.286,-0.15534 -0.5671,-0.32271 -0.8403,-0.49733 -0.035,-0.0223 -0.068,-0.046 -0.1029,-0.0686 -0.2783,-0.18139 -0.5595,-0.36538 -0.8232,-0.56593 -0.1443,-0.10997 -0.289,-0.2275 -0.4287,-0.34299 -0.1411,-0.11643 -0.2753,-0.23825 -0.4116,-0.36013 -0.027,-0.0244 -0.059,-0.044 -0.086,-0.0686 -0.4872,-0.44288 -0.9354,-0.91521 -1.3547,-1.4234 -0.018,-0.0221 -0.034,-0.0464 -0.052,-0.0686 -0.2288,-0.28069 -0.4454,-0.57612 -0.6517,-0.87462 -0.028,-0.0407 -0.058,-0.079 -0.086,-0.12004 -0.1672,-0.24755 -0.329,-0.49589 -0.4802,-0.75458 -0.023,-0.0395 -0.046,-0.0803 -0.069,-0.12004 -0.1661,-0.29097 -0.318,-0.58797 -0.463,-0.89177 -0.1569,-0.32885 -0.2978,-0.66916 -0.4287,-1.01181 -0.022,-0.0574 -0.047,-0.11376 -0.069,-0.1715 -0.1053,-0.28747 -0.2053,-0.57851 -0.2915,-0.87462 l -20.3049,0 z"
         style="fill:#faba00;fill-opacity:1;fill-rule:nonzero;stroke:#aa7e00;stroke-width:2;stroke-miterlimit:4;stroke-opacity:1;stroke-dasharray:none"
         inkscape:connector-curvature="0" />
      <path
         transform="matrix(0.29398955,0,0,0.29398955,826.09229,685.51854)"
         d="m 1162,-17 c 0,15.463973 -12.536,28 -28,28 -15.464,0 -28,-12.536027 -28,-28 0,-15.463973 12.536,-28 28,-28 15.464,0 28,12.536027 28,28 z"
         sodipodi:ry="28"
         sodipodi:rx="28"
         sodipodi:cy="-17"
         sodipodi:cx="1134"
         id="path10126"
         style="fill:#faba00;fill-opacity:1;fill-rule:nonzero;stroke:#aa7e00;stroke-width:6.80296278;stroke-miterlimit:4;stroke-opacity:1;stroke-dasharray:none"
         sodipodi:type="arc" />
    </g>
  </g>
</svg>
